<?xml version="1.0" standalone="no"?>
<!DOCTYPE svg PUBLIC "-//W3C//DTD SVG 20010904//EN"
 "http://www.w3.org/TR/2001/REC-SVG-20010904/DTD/svg10.dtd">
<svg version="1.0" xmlns="http://www.w3.org/2000/svg"
 width="700.000000pt" height="700.000000pt" viewBox="0 0 700.000000 700.000000"
 preserveAspectRatio="xMidYMid meet">
<metadata>
Created by potrace 1.11, written by Peter Selinger 2001-2013
</metadata>
<g transform="translate(0.000000,700.000000) scale(0.100000,-0.100000)"
fill="#000000" stroke="none">
<path d="M1665 5431 c-48 -22 -79 -54 -100 -103 -34 -82 -9 -182 57 -231 18
-14 71 -41 118 -62 47 -21 131 -60 188 -86 56 -27 104 -49 106 -49 2 0 65 -29
141 -65 75 -36 138 -65 140 -65 2 0 43 -19 92 -41 48 -23 180 -84 293 -137
113 -52 327 -151 475 -219 330 -153 323 -152 489 -74 59 28 110 51 111 51 2 0
60 27 130 60 70 33 128 60 130 60 1 0 56 25 121 56 66 30 133 61 149 69 17 7
75 34 130 60 55 26 145 67 200 92 55 25 134 61 175 80 81 38 307 142 435 201
159 73 196 108 203 199 8 99 -48 189 -133 212 -28 8 -572 11 -1825 11 -1714 0
-1787 -1 -1825 -19z"/>
<path d="M1073 5079 c-56 -11 -109 -54 -138 -110 -13 -24 -20 -76 -16 -124 0
-12 80 -158 177 -325 97 -168 186 -323 199 -345 12 -22 131 -229 265 -460 256
-442 588 -1018 748 -1295 52 -91 160 -277 240 -415 80 -137 150 -259 156 -270
105 -193 339 -586 362 -610 88 -90 262 -57 315 59 18 39 19 94 19 1401 0 919
-4 1372 -11 1398 -20 73 -54 98 -282 202 -116 54 -254 118 -305 141 -52 24
-95 44 -97 44 -2 0 -54 24 -116 54 -63 29 -193 90 -289 134 -96 44 -204 93
-240 110 -36 17 -189 88 -340 157 -597 276 -580 269 -647 254z"/>
<path d="M5835 5075 c-22 -7 -67 -25 -100 -40 -33 -15 -94 -43 -135 -62 -41
-20 -129 -60 -195 -90 -66 -31 -167 -77 -224 -104 -57 -27 -105 -49 -106 -49
-2 0 -47 -21 -102 -46 -54 -26 -179 -83 -278 -129 -228 -105 -293 -134 -435
-200 -110 -51 -191 -88 -310 -142 -291 -134 -318 -152 -340 -233 -7 -26 -9
-482 -8 -1407 3 -1281 4 -1370 20 -1400 41 -74 142 -117 224 -95 61 16 95 43
131 105 26 43 584 1008 848 1467 40 69 124 215 187 325 64 110 125 216 135
235 11 19 60 103 108 185 48 83 96 166 107 185 10 19 23 42 28 50 16 24 200
342 200 345 0 1 30 54 66 116 37 63 109 188 162 279 52 91 128 223 169 294 41
71 80 145 87 165 50 142 -94 290 -239 246z"/>
</g>
</svg>
