<?xml version="1.0" encoding="UTF-8" standalone="no"?>
<svg
   xmlns:dc="http://purl.org/dc/elements/1.1/"
   xmlns:cc="http://creativecommons.org/ns#"
   xmlns:rdf="http://www.w3.org/1999/02/22-rdf-syntax-ns#"
   xmlns:svg="http://www.w3.org/2000/svg"
   xmlns="http://www.w3.org/2000/svg"
   xmlns:sodipodi="http://sodipodi.sourceforge.net/DTD/sodipodi-0.dtd"
   xmlns:inkscape="http://www.inkscape.org/namespaces/inkscape"
   inkscape:version="1.0 (4035a4fb49, 2020-05-01)"
   sodipodi:docname="matrix.svg"
   xml:space="preserve"
   enable-background="new 0 0 793.322 340.809"
   viewBox="0 0 340.80898 340.809"
   height="340.80899"
   width="340.80899"
   y="0px"
   x="0px"
   id="Layer_1"
   version="1.1"><metadata
   id="metadata55"><rdf:RDF><cc:Work
       rdf:about=""><dc:format>image/svg+xml</dc:format><dc:type
         rdf:resource="http://purl.org/dc/dcmitype/StillImage" /><dc:title></dc:title></cc:Work></rdf:RDF></metadata><defs
   id="defs53" /><sodipodi:namedview
   inkscape:current-layer="Layer_1"
   inkscape:window-maximized="1"
   inkscape:window-y="24"
   inkscape:window-x="1280"
   inkscape:cy="170.4045"
   inkscape:cx="324.08475"
   inkscape:zoom="1.4949793"
   showgrid="false"
   id="namedview51"
   inkscape:window-height="1028"
   inkscape:window-width="1920"
   inkscape:pageshadow="2"
   inkscape:pageopacity="0"
   guidetolerance="10"
   gridtolerance="10"
   objecttolerance="10"
   borderopacity="1"
   bordercolor="#666666"
   pagecolor="#ffffff" />
<path
   id="path2"
   d="m 52.25734,340.809 h -32.004 c -1.104,0 -2,-0.896 -2,-2 V 1.9999952 c 0,-1.10399996 0.896,-1.9999999607422 2,-1.9999999607422 h 32.004 c 1.104,0 2,0.8960000007422 2,1.9999999607422 v 7.71 c 0,1.1039998 -0.896,1.9999998 -2,1.9999998 h -21.13 V 329.096 h 21.13 c 1.104,0 2,0.896 2,2.001 v 7.712 c 0,1.104 -0.896,2 -2,2 z"
   fill="#ffffff"
   opacity="0.5" />
<path
   id="path4"
   d="M 29.12834,9.7109952 V 331.097 h 23.13 v 7.711 h -32.006 V 2.0009952 h 32.006 v 7.71 z"
   fill="#ffffff"
   opacity="0.5" />
<path
   id="path6"
   d="m 270.65534,233.711 h -32.993 c -1.104,0 -2,-0.896 -2,-2 v -68.073 c 0,-3.949 -0.154,-7.722 -0.457,-11.213 -0.289,-3.282 -1.074,-6.153 -2.332,-8.53 -1.204,-2.276 -3.017,-4.119 -5.384,-5.476 -2.393,-1.362 -5.775,-2.056 -10.042,-2.056 -4.238,0 -7.674,0.798 -10.213,2.371 -2.565,1.596 -4.604,3.701 -6.053,6.258 -1.498,2.643 -2.51,5.694 -3.013,9.067 -0.526,3.513 -0.793,7.125 -0.793,10.741 v 66.91 c 0,1.104 -0.896,2 -2,2 h -32.991 c -1.104,0 -2,-0.896 -2,-2 v -67.373 c 0,-3.435 -0.078,-6.964 -0.228,-10.485 -0.148,-3.251 -0.767,-6.278 -1.841,-8.995 -1.018,-2.571 -2.667,-4.584 -5.047,-6.153 -2.372,-1.552 -6.029,-2.341 -10.865,-2.341 -1.372,0 -3.265,0.328 -5.629,0.976 -2.28,0.624 -4.536,1.826 -6.705,3.577 -2.152,1.732 -4.036,4.306 -5.605,7.655 -1.569,3.356 -2.367,7.877 -2.367,13.438 v 69.701 c 0,1.104 -0.895,2 -2,2 h -32.987 c -1.104,0 -2,-0.896 -2,-2 V 111.594 c 0,-1.104 0.896,-1.999 2,-1.999 h 31.13 c 1.104,0 2,0.896 2,1.999 v 11.007 c 3.834,-4.499 8.248,-8.152 13.173,-10.896 6.396,-3.559 13.799,-5.362 22.002,-5.362 7.846,0 15.127,1.548 21.642,4.604 5.794,2.722 10.424,7.26 13.791,13.52 3.449,-4.362 7.833,-8.306 13.071,-11.752 6.422,-4.228 14.102,-6.371 22.824,-6.371 6.499,0 12.625,0.807 18.209,2.399 5.686,1.628 10.635,4.271 14.712,7.857 4.088,3.605 7.318,8.357 9.601,14.123 2.25,5.719 3.391,12.649 3.391,20.604 v 80.384 c -10e-4,1.104 -0.896,2 -2.001,2 z"
   fill="#ffffff"
   opacity="0.5" />
<path
   id="path8"
   d="m 118.24134,111.595 v 16.264 h 0.463 c 4.338,-6.191 9.563,-10.998 15.684,-14.406 6.117,-3.402 13.129,-5.11 21.027,-5.11 7.588,0 14.521,1.475 20.793,4.415 6.274,2.945 11.038,8.131 14.291,15.567 3.56,-5.265 8.4,-9.913 14.521,-13.94 6.117,-4.025 13.358,-6.042 21.724,-6.042 6.351,0 12.234,0.776 17.66,2.325 5.418,1.549 10.065,4.027 13.938,7.434 3.869,3.41 6.889,7.863 9.062,13.357 2.167,5.504 3.253,12.122 3.253,19.869 v 80.385 h -32.994 v -68.074 c 0,-4.025 -0.154,-7.82 -0.465,-11.385 -0.313,-3.56 -1.161,-6.656 -2.555,-9.293 -1.395,-2.631 -3.45,-4.724 -6.157,-6.274 -2.711,-1.543 -6.391,-2.322 -11.037,-2.322 -4.646,0 -8.403,0.896 -11.269,2.671 -2.868,1.784 -5.112,4.109 -6.737,6.971 -1.626,2.869 -2.711,6.12 -3.252,9.762 -0.545,3.638 -0.814,7.318 -0.814,11.035 v 66.91 h -32.991 v -67.375 c 0,-3.562 -0.081,-7.087 -0.23,-10.57 -0.158,-3.487 -0.814,-6.7 -1.978,-9.645 -1.162,-2.94 -3.099,-5.304 -5.809,-7.088 -2.711,-1.775 -6.699,-2.671 -11.965,-2.671 -1.551,0 -3.603,0.349 -6.156,1.048 -2.556,0.697 -5.036,2.016 -7.435,3.949 -2.404,1.938 -4.454,4.726 -6.158,8.363 -1.705,3.642 -2.556,8.402 -2.556,14.287 v 69.701 h -32.99 V 111.595 Z"
   fill="#ffffff"
   opacity="0.5" />












<path
   id="path34"
   d="M 29.12834,9.7109952 V 331.097 h 23.13 v 7.711 h -32.006 V 2.0009952 h 32.006 v 7.71 z" />
<path
   id="path36"
   d="m 118.24134,111.595 v 16.264 h 0.463 c 4.338,-6.191 9.563,-10.998 15.684,-14.406 6.117,-3.402 13.129,-5.11 21.027,-5.11 7.588,0 14.521,1.475 20.793,4.415 6.274,2.945 11.038,8.131 14.291,15.567 3.56,-5.265 8.4,-9.913 14.521,-13.94 6.117,-4.025 13.358,-6.042 21.724,-6.042 6.351,0 12.234,0.776 17.66,2.325 5.418,1.549 10.065,4.027 13.938,7.434 3.869,3.41 6.889,7.863 9.062,13.357 2.167,5.504 3.253,12.122 3.253,19.869 v 80.385 h -32.994 v -68.074 c 0,-4.025 -0.154,-7.82 -0.465,-11.385 -0.313,-3.56 -1.161,-6.656 -2.555,-9.293 -1.395,-2.631 -3.45,-4.724 -6.157,-6.274 -2.711,-1.543 -6.391,-2.322 -11.037,-2.322 -4.646,0 -8.403,0.896 -11.269,2.671 -2.868,1.784 -5.112,4.109 -6.737,6.971 -1.626,2.869 -2.711,6.12 -3.252,9.762 -0.545,3.638 -0.814,7.318 -0.814,11.035 v 66.91 h -32.991 v -67.375 c 0,-3.562 -0.081,-7.087 -0.23,-10.57 -0.158,-3.487 -0.814,-6.7 -1.978,-9.645 -1.162,-2.94 -3.099,-5.304 -5.809,-7.088 -2.711,-1.775 -6.699,-2.671 -11.965,-2.671 -1.551,0 -3.603,0.349 -6.156,1.048 -2.556,0.697 -5.036,2.016 -7.435,3.949 -2.404,1.938 -4.454,4.726 -6.158,8.363 -1.705,3.642 -2.556,8.402 -2.556,14.287 v 69.701 h -32.99 V 111.595 Z" />





<path
   id="path48"
   d="M 313.67765,331.09699 V 9.7109913 h -23.13 V 2.0009916 h 32.008 V 338.80799 h -32.008 v -7.711 z" />
</svg>
