<?xml version="1.0" encoding="UTF-8" standalone="no"?>
<svg
   xmlns:dc="http://purl.org/dc/elements/1.1/"
   xmlns:cc="http://creativecommons.org/ns#"
   xmlns:rdf="http://www.w3.org/1999/02/22-rdf-syntax-ns#"
   xmlns:svg="http://www.w3.org/2000/svg"
   xmlns="http://www.w3.org/2000/svg"
   xmlns:sodipodi="http://sodipodi.sourceforge.net/DTD/sodipodi-0.dtd"
   xmlns:inkscape="http://www.inkscape.org/namespaces/inkscape"
   inkscape:version="1.0 (4035a4fb49, 2020-05-01)"
   sodipodi:docname="matrix_s.svg"
   id="svg4"
   version="1.1"
   viewBox="0 0 24 24">
  <metadata
     id="metadata10">
    <rdf:RDF>
      <cc:Work
         rdf:about="">
        <dc:format>image/svg+xml</dc:format>
        <dc:type
           rdf:resource="http://purl.org/dc/dcmitype/StillImage" />
        <dc:title></dc:title>
      </cc:Work>
    </rdf:RDF>
  </metadata>
  <defs
     id="defs8" />
  <sodipodi:namedview
     inkscape:current-layer="svg4"
     inkscape:window-maximized="1"
     inkscape:window-y="0"
     inkscape:window-x="0"
     inkscape:cy="-7.5649331"
     inkscape:cx="5.7599232"
     inkscape:zoom="9.0729167"
     showgrid="false"
     id="namedview6"
     inkscape:window-height="996"
     inkscape:window-width="1280"
     inkscape:pageshadow="2"
     inkscape:pageopacity="0"
     guidetolerance="10"
     gridtolerance="10"
     objecttolerance="10"
     borderopacity="1"
     bordercolor="#666666"
     pagecolor="#ffffff" />
  <path
     style="stroke-width:0.0712576"
     id="path2"
     d="M 1.2293314,2.9999999e-8 V 24 H 3.5099889 V 23.450538 H 1.8618809 V 0.54932299 h 1.648108 V 2.9999999e-8 Z m 19.2605416,0 V 0.54932299 H 22.13812 V 23.450538 H 20.489873 V 24 h 2.280796 V 2.9999999e-8 Z M 10.860785,7.5776509 c -0.562792,0 -1.0624743,0.1216628 -1.4983565,0.3640809 C 8.9262617,8.1845782 8.5539706,8.5271299 8.2448553,8.968286 H 8.2118722 V 7.8093766 H 5.9934254 v 8.5592514 h 2.350802 v -4.966731 c 0,-0.419351 0.060685,-0.758545 0.1821796,-1.018064 C 8.6478299,10.124669 8.7937829,9.9259837 8.9650861,9.7878857 9.1360327,9.6501458 9.3127907,9.5561412 9.4949249,9.5064746 c 0.1819204,-0.049808 0.3281586,-0.074602 0.438679,-0.074602 0.3752421,0 0.6594051,0.063766 0.8525841,0.1902529 0.193108,0.1271233 0.331105,0.2955683 0.413906,0.5050645 0.08294,0.209854 0.129726,0.43891 0.140985,0.687385 0.01062,0.248189 0.01642,0.499394 0.01642,0.753213 v 4.800975 H 13.7083 v -4.767846 c 0,-0.264865 0.0192,-0.527104 0.05804,-0.786338 0.03854,-0.259521 0.115861,-0.491159 0.231725,-0.695596 0.115794,-0.2039387 0.275648,-0.3697302 0.480015,-0.4968535 0.204224,-0.126482 0.471976,-0.1902529 0.803039,-0.1902529 0.331062,0 0.593297,0.055534 0.786476,0.1654792 0.192894,0.1104491 0.339275,0.2595514 0.43868,0.4470292 0.09934,0.187906 0.159876,0.408518 0.182179,0.662195 0.02216,0.254032 0.03313,0.524437 0.03313,0.811249 v 4.850799 h 2.35108 V 10.64061 c 0,-0.552031 -0.07745,-1.0236233 -0.231865,-1.4158256 C 18.685949,8.8332959 18.470716,8.5159562 18.19502,8.2729682 17.91904,8.0301937 17.587942,7.853647 17.201869,7.7432689 c -0.386643,-0.1103776 -0.805862,-0.165618 -1.25842,-0.165618 -0.59614,0 -1.112158,0.1436567 -1.54804,0.4304679 C 13.959241,8.2950728 13.61446,8.6262386 13.360783,9.0014094 13.128983,8.4715385 12.78951,8.1020391 12.342441,7.8921858 11.895514,7.6826886 11.401489,7.5776509 10.860785,7.5776509 Z" />
</svg>
