<?xml version="1.0" encoding="UTF-8" standalone="no"?>
<svg
   xmlns:dc="http://purl.org/dc/elements/1.1/"
   xmlns:cc="http://creativecommons.org/ns#"
   xmlns:rdf="http://www.w3.org/1999/02/22-rdf-syntax-ns#"
   xmlns:svg="http://www.w3.org/2000/svg"
   xmlns="http://www.w3.org/2000/svg"
   xmlns:sodipodi="http://sodipodi.sourceforge.net/DTD/sodipodi-0.dtd"
   xmlns:inkscape="http://www.inkscape.org/namespaces/inkscape"
   inkscape:export-ydpi="96"
   inkscape:export-xdpi="96"
   inkscape:export-filename="/home/admin/spirit/sp1rit_notext.png"
   version="1.1"
   id="svg2"
   xml:space="preserve"
   width="1333.3333"
   height="1333.3333"
   viewBox="0 0 1333.3333 1333.3333"
   sodipodi:docname="logo.svg"
   inkscape:version="1.0 (4035a4fb49, 2020-05-01)"><metadata
     id="metadata8"><rdf:RDF><cc:Work
         rdf:about=""><dc:format>image/svg+xml</dc:format><dc:type
           rdf:resource="http://purl.org/dc/dcmitype/StillImage" /><dc:title /></cc:Work></rdf:RDF></metadata><defs
     id="defs6"><clipPath
       clipPathUnits="userSpaceOnUse"
       id="clipPath22"><path
         d="m 0,5708 v 4292 H 4292 V 5708 Z"
         id="path20" /></clipPath><clipPath
       clipPathUnits="userSpaceOnUse"
       id="clipPath34"><path
         d="m 4276,5708 v 4292 H 8578 V 5708 Z"
         id="path32" /></clipPath><clipPath
       clipPathUnits="userSpaceOnUse"
       id="clipPath46"><path
         d="m 8563,0 v 10000 h 1437 V 0 Z"
         id="path44" /></clipPath><clipPath
       clipPathUnits="userSpaceOnUse"
       id="clipPath58"><path
         d="M 0,1422 V 5724 H 4292 V 1422 Z"
         id="path56" /></clipPath><clipPath
       clipPathUnits="userSpaceOnUse"
       id="clipPath70"><path
         d="M 4276.8,1422.4 H 8577.6 V 5723.2 H 4276.8 Z"
         id="path68" /></clipPath><clipPath
       clipPathUnits="userSpaceOnUse"
       id="clipPath82"><path
         d="M 0,1437 H 8578 V 0 H 0 Z"
         id="path80" /></clipPath><clipPath
       clipPathUnits="userSpaceOnUse"
       id="clipPath126"><path
         d="M 4693.75,4262.63 3340.76,6606.19 c -35.06,60.75 -14.44,118.64 16.65,152.75 30.93,33.94 86.77,59.8 150.53,30.45 l 246.8,-113.73 1.12,-0.63 1105.08,-509.47 c 45.99,-21.1 75.66,-67.42 75.66,-118.01 V 4327.82 c 0,-73.76 -49.81,-113.25 -96.44,-125.78 -46.63,-12.37 -109.6,-3.01 -146.41,60.59 z"
         id="path124" /></clipPath><linearGradient
       x1="0"
       y1="0"
       x2="1"
       y2="0"
       gradientUnits="userSpaceOnUse"
       gradientTransform="matrix(-6326.81,-8578.72,-8578.72,6326.81,8239.99,11071.3)"
       spreadMethod="pad"
       id="linearGradient138"><stop
         style="stop-opacity:1;stop-color:#f27121"
         offset="0"
         id="stop128" /><stop
         style="stop-opacity:1;stop-color:#e94057"
         offset="0.50700986"
         id="stop130" /><stop
         style="stop-opacity:1;stop-color:#e94057"
         offset="0.50702"
         id="stop132" /><stop
         style="stop-opacity:1;stop-color:#8a2387"
         offset="0.99996056"
         id="stop134" /><stop
         style="stop-opacity:1;stop-color:#8a2387"
         offset="1"
         id="stop136" /></linearGradient><clipPath
       clipPathUnits="userSpaceOnUse"
       id="clipPath148"><path
         d="m 4945.48,6266.44 -31.41,14.43 -1105.08,509.47 c -70.11,32.21 -83.43,96.6 -72.64,145.94 10.79,49.48 49.96,102.29 127.05,102.29 h 2273.29 c 77.09,0 116.11,-52.81 127.05,-102.29 2.06,-9.68 3.33,-19.99 3.33,-30.63 0,-42.82 -19.82,-89.45 -75.98,-115.31 l -1105.07,-509.47 -31.57,-14.43 c -34.58,-16.02 -74.24,-16.02 -108.97,0 z"
         id="path146" /></clipPath><linearGradient
       x1="0"
       y1="0"
       x2="1"
       y2="0"
       gradientUnits="userSpaceOnUse"
       gradientTransform="matrix(-6326.81,-8578.72,-8578.72,6326.81,8130.17,11152.3)"
       spreadMethod="pad"
       id="linearGradient160"><stop
         style="stop-opacity:1;stop-color:#f27121"
         offset="0"
         id="stop150" /><stop
         style="stop-opacity:1;stop-color:#e94057"
         offset="0.50700986"
         id="stop152" /><stop
         style="stop-opacity:1;stop-color:#e94057"
         offset="0.50702"
         id="stop154" /><stop
         style="stop-opacity:1;stop-color:#8a2387"
         offset="0.99996056"
         id="stop156" /><stop
         style="stop-opacity:1;stop-color:#8a2387"
         offset="1"
         id="stop158" /></linearGradient><clipPath
       clipPathUnits="userSpaceOnUse"
       id="clipPath170"><path
         d="m 5159.93,4202.04 c -46.63,12.53 -96.44,52.02 -96.44,125.78 v 1719.73 c 0,50.59 29.66,96.91 75.66,118.01 l 1106.83,510.43 246.17,113.4 c 63.61,29.35 119.44,3.49 150.53,-30.45 19.51,-21.41 34.9,-52.34 34.9,-87.4 0,-20.61 -5.4,-42.83 -18.4,-65.35 L 5306.17,4262.63 c -36.79,-63.6 -99.61,-72.96 -146.24,-60.59 z"
         id="path168" /></clipPath><linearGradient
       x1="0"
       y1="0"
       x2="1"
       y2="0"
       gradientUnits="userSpaceOnUse"
       gradientTransform="matrix(-6326.81,-8578.72,-8578.72,6326.81,9077.43,10453.7)"
       spreadMethod="pad"
       id="linearGradient182"><stop
         style="stop-opacity:1;stop-color:#f27121"
         offset="0"
         id="stop172" /><stop
         style="stop-opacity:1;stop-color:#e94057"
         offset="0.50700986"
         id="stop174" /><stop
         style="stop-opacity:1;stop-color:#e94057"
         offset="0.50702"
         id="stop176" /><stop
         style="stop-opacity:1;stop-color:#8a2387"
         offset="0.99996056"
         id="stop178" /><stop
         style="stop-opacity:1;stop-color:#8a2387"
         offset="1"
         id="stop180" /></linearGradient></defs><sodipodi:namedview
     inkscape:document-rotation="0"
     pagecolor="#ffffff"
     bordercolor="#666666"
     borderopacity="1"
     objecttolerance="10"
     gridtolerance="10"
     guidetolerance="10"
     inkscape:pageopacity="0"
     inkscape:pageshadow="2"
     inkscape:window-width="1920"
     inkscape:window-height="1028"
     id="namedview4"
     showgrid="false"
     inkscape:zoom="0.46191753"
     inkscape:cx="1077.2469"
     inkscape:cy="434.21822"
     inkscape:window-x="1280"
     inkscape:window-y="24"
     inkscape:window-maximized="1"
     inkscape:current-layer="layer1" /><g
     id="g10"
     inkscape:groupmode="layer"
     inkscape:label="ink_ext_XXXXXX"
     transform="matrix(1.3333333,0,0,-1.3333333,0,1333.3333)"><circle
       r="499.88205"
       transform="scale(1,-1)"
       cy="-500.00766"
       cx="499.99234"
       id="path879"
       style="fill:#ffffff;fill-opacity:1;stroke:none;stroke-width:0.220605;stroke-opacity:1" /></g><g
     inkscape:label="ink_ext_XXXXXX 1"
     id="layer1"
     inkscape:groupmode="layer"><g
       id="g12"
       transform="matrix(0.15458131,0,0,-0.15458131,-106.2399,1485.2761)"><g
         id="g52"><g
           id="g54"
           clip-path="url(#clipPath58)" /></g><g
         id="g120"
         transform="matrix(1.9005839,0,0,1.9005839,-4502.9207,-5677.3926)"><g
           id="g122"
           clip-path="url(#clipPath126)"><path
             d="M 4693.75,4262.63 3340.76,6606.19 c -35.06,60.75 -14.44,118.64 16.65,152.75 30.93,33.94 86.77,59.8 150.53,30.45 l 246.8,-113.73 1.12,-0.63 1105.08,-509.47 c 45.99,-21.1 75.66,-67.42 75.66,-118.01 V 4327.82 c 0,-73.76 -49.81,-113.25 -96.44,-125.78 -46.63,-12.37 -109.6,-3.01 -146.41,60.59"
             style="fill:url(#linearGradient138);fill-opacity:1;fill-rule:nonzero;stroke:none"
             id="path140" /></g></g><g
         id="g142"
         transform="matrix(1.9005839,0,0,1.9005839,-4502.9207,-5677.3926)"><g
           id="g144"
           clip-path="url(#clipPath148)"><path
             d="m 4945.48,6266.44 -31.41,14.43 -1105.08,509.47 c -70.11,32.21 -83.43,96.6 -72.64,145.94 10.79,49.48 49.96,102.29 127.05,102.29 h 2273.29 c 77.09,0 116.11,-52.81 127.05,-102.29 2.06,-9.68 3.33,-19.99 3.33,-30.63 0,-42.82 -19.82,-89.45 -75.98,-115.31 l -1105.07,-509.47 -31.57,-14.43 c -34.58,-16.02 -74.24,-16.02 -108.97,0"
             style="fill:url(#linearGradient160);fill-opacity:1;fill-rule:nonzero;stroke:none"
             id="path162" /></g></g><g
         id="g164"
         transform="matrix(1.9005839,0,0,1.9005839,-4502.9207,-5677.3926)"><g
           id="g166"
           clip-path="url(#clipPath170)"><path
             d="m 5159.93,4202.04 c -46.63,12.53 -96.44,52.02 -96.44,125.78 v 1719.73 c 0,50.59 29.66,96.91 75.66,118.01 l 1106.83,510.43 246.17,113.4 c 63.61,29.35 119.44,3.49 150.53,-30.45 19.51,-21.41 34.9,-52.34 34.9,-87.4 0,-20.61 -5.4,-42.83 -18.4,-65.35 L 5306.17,4262.63 c -36.79,-63.6 -99.61,-72.96 -146.24,-60.59"
             style="fill:url(#linearGradient182);fill-opacity:1;fill-rule:nonzero;stroke:none"
             id="path184" /></g></g></g></g></svg>
