<?xml version="1.0" encoding="UTF-8" standalone="no"?>
<svg
   xmlns:dc="http://purl.org/dc/elements/1.1/"
   xmlns:cc="http://creativecommons.org/ns#"
   xmlns:rdf="http://www.w3.org/1999/02/22-rdf-syntax-ns#"
   xmlns:svg="http://www.w3.org/2000/svg"
   xmlns="http://www.w3.org/2000/svg"
   xmlns:sodipodi="http://sodipodi.sourceforge.net/DTD/sodipodi-0.dtd"
   xmlns:inkscape="http://www.inkscape.org/namespaces/inkscape"
   inkscape:version="1.0 (4035a4fb49, 2020-05-01)"
   sodipodi:docname="logo_nobg.svg"
   viewBox="0 0 1333.3333 1333.3333"
   height="1333.3333"
   width="1333.3333"
   xml:space="preserve"
   id="svg2"
   version="1.1"
   inkscape:export-filename="/home/admin/spirit/sp1rit_notext.png"
   inkscape:export-xdpi="96"
   inkscape:export-ydpi="96"><metadata
     id="metadata8"><rdf:RDF><cc:Work
         rdf:about=""><dc:format>image/svg+xml</dc:format><dc:type
           rdf:resource="http://purl.org/dc/dcmitype/StillImage" /><dc:title></dc:title></cc:Work></rdf:RDF></metadata><defs
     id="defs6"><clipPath
       id="clipPath22"
       clipPathUnits="userSpaceOnUse"><path
         id="path20"
         d="m 0,5708 v 4292 H 4292 V 5708 Z" /></clipPath><clipPath
       id="clipPath34"
       clipPathUnits="userSpaceOnUse"><path
         id="path32"
         d="m 4276,5708 v 4292 H 8578 V 5708 Z" /></clipPath><clipPath
       id="clipPath46"
       clipPathUnits="userSpaceOnUse"><path
         id="path44"
         d="m 8563,0 v 10000 h 1437 V 0 Z" /></clipPath><clipPath
       id="clipPath58"
       clipPathUnits="userSpaceOnUse"><path
         id="path56"
         d="M 0,1422 V 5724 H 4292 V 1422 Z" /></clipPath><clipPath
       id="clipPath70"
       clipPathUnits="userSpaceOnUse"><path
         id="path68"
         d="M 4276.8,1422.4 H 8577.6 V 5723.2 H 4276.8 Z" /></clipPath><clipPath
       id="clipPath82"
       clipPathUnits="userSpaceOnUse"><path
         id="path80"
         d="M 0,1437 H 8578 V 0 H 0 Z" /></clipPath><clipPath
       id="clipPath126"
       clipPathUnits="userSpaceOnUse"><path
         id="path124"
         d="M 4693.75,4262.63 3340.76,6606.19 c -35.06,60.75 -14.44,118.64 16.65,152.75 30.93,33.94 86.77,59.8 150.53,30.45 l 246.8,-113.73 1.12,-0.63 1105.08,-509.47 c 45.99,-21.1 75.66,-67.42 75.66,-118.01 V 4327.82 c 0,-73.76 -49.81,-113.25 -96.44,-125.78 -46.63,-12.37 -109.6,-3.01 -146.41,60.59 z" /></clipPath><linearGradient
       id="linearGradient138"
       spreadMethod="pad"
       gradientTransform="matrix(-6326.81,-8578.72,-8578.72,6326.81,8239.99,11071.3)"
       gradientUnits="userSpaceOnUse"
       y2="0"
       x2="1"
       y1="0"
       x1="0"><stop
         id="stop128"
         offset="0"
         style="stop-opacity:1;stop-color:#f27121" /><stop
         id="stop130"
         offset="0.50700986"
         style="stop-opacity:1;stop-color:#e94057" /><stop
         id="stop132"
         offset="0.50702"
         style="stop-opacity:1;stop-color:#e94057" /><stop
         id="stop134"
         offset="0.99996056"
         style="stop-opacity:1;stop-color:#8a2387" /><stop
         id="stop136"
         offset="1"
         style="stop-opacity:1;stop-color:#8a2387" /></linearGradient><clipPath
       id="clipPath148"
       clipPathUnits="userSpaceOnUse"><path
         id="path146"
         d="m 4945.48,6266.44 -31.41,14.43 -1105.08,509.47 c -70.11,32.21 -83.43,96.6 -72.64,145.94 10.79,49.48 49.96,102.29 127.05,102.29 h 2273.29 c 77.09,0 116.11,-52.81 127.05,-102.29 2.06,-9.68 3.33,-19.99 3.33,-30.63 0,-42.82 -19.82,-89.45 -75.98,-115.31 l -1105.07,-509.47 -31.57,-14.43 c -34.58,-16.02 -74.24,-16.02 -108.97,0 z" /></clipPath><linearGradient
       id="linearGradient160"
       spreadMethod="pad"
       gradientTransform="matrix(-6326.81,-8578.72,-8578.72,6326.81,8130.17,11152.3)"
       gradientUnits="userSpaceOnUse"
       y2="0"
       x2="1"
       y1="0"
       x1="0"><stop
         id="stop150"
         offset="0"
         style="stop-opacity:1;stop-color:#f27121" /><stop
         id="stop152"
         offset="0.50700986"
         style="stop-opacity:1;stop-color:#e94057" /><stop
         id="stop154"
         offset="0.50702"
         style="stop-opacity:1;stop-color:#e94057" /><stop
         id="stop156"
         offset="0.99996056"
         style="stop-opacity:1;stop-color:#8a2387" /><stop
         id="stop158"
         offset="1"
         style="stop-opacity:1;stop-color:#8a2387" /></linearGradient><clipPath
       id="clipPath170"
       clipPathUnits="userSpaceOnUse"><path
         id="path168"
         d="m 5159.93,4202.04 c -46.63,12.53 -96.44,52.02 -96.44,125.78 v 1719.73 c 0,50.59 29.66,96.91 75.66,118.01 l 1106.83,510.43 246.17,113.4 c 63.61,29.35 119.44,3.49 150.53,-30.45 19.51,-21.41 34.9,-52.34 34.9,-87.4 0,-20.61 -5.4,-42.83 -18.4,-65.35 L 5306.17,4262.63 c -36.79,-63.6 -99.61,-72.96 -146.24,-60.59 z" /></clipPath><linearGradient
       id="linearGradient182"
       spreadMethod="pad"
       gradientTransform="matrix(-6326.81,-8578.72,-8578.72,6326.81,9077.43,10453.7)"
       gradientUnits="userSpaceOnUse"
       y2="0"
       x2="1"
       y1="0"
       x1="0"><stop
         id="stop172"
         offset="0"
         style="stop-opacity:1;stop-color:#f27121" /><stop
         id="stop174"
         offset="0.50700986"
         style="stop-opacity:1;stop-color:#e94057" /><stop
         id="stop176"
         offset="0.50702"
         style="stop-opacity:1;stop-color:#e94057" /><stop
         id="stop178"
         offset="0.99996056"
         style="stop-opacity:1;stop-color:#8a2387" /><stop
         id="stop180"
         offset="1"
         style="stop-opacity:1;stop-color:#8a2387" /></linearGradient></defs><sodipodi:namedview
     inkscape:current-layer="g10"
     inkscape:window-maximized="1"
     inkscape:window-y="0"
     inkscape:window-x="0"
     inkscape:cy="434.21822"
     inkscape:cx="1077.2469"
     inkscape:zoom="0.46191753"
     showgrid="false"
     id="namedview4"
     inkscape:window-height="1028"
     inkscape:window-width="1920"
     inkscape:pageshadow="2"
     inkscape:pageopacity="0"
     guidetolerance="10"
     gridtolerance="10"
     objecttolerance="10"
     borderopacity="1"
     bordercolor="#666666"
     pagecolor="#ffffff"
     inkscape:document-rotation="0" /><g
     transform="matrix(1.3333333,0,0,-1.3333333,0,1333.3333)"
     inkscape:label="ink_ext_XXXXXX"
     inkscape:groupmode="layer"
     id="g10" /><g
     inkscape:groupmode="layer"
     id="layer1"
     inkscape:label="ink_ext_XXXXXX 1"><g
       transform="matrix(0.15458131,0,0,-0.15458131,-106.2399,1485.2761)"
       id="g12"><g
         id="g52"><g
           clip-path="url(#clipPath58)"
           id="g54" /></g><g
         transform="matrix(1.9005839,0,0,1.9005839,-4502.9207,-5677.3926)"
         id="g120"><g
           clip-path="url(#clipPath126)"
           id="g122"><path
             id="path140"
             style="fill:url(#linearGradient138);fill-opacity:1;fill-rule:nonzero;stroke:none"
             d="M 4693.75,4262.63 3340.76,6606.19 c -35.06,60.75 -14.44,118.64 16.65,152.75 30.93,33.94 86.77,59.8 150.53,30.45 l 246.8,-113.73 1.12,-0.63 1105.08,-509.47 c 45.99,-21.1 75.66,-67.42 75.66,-118.01 V 4327.82 c 0,-73.76 -49.81,-113.25 -96.44,-125.78 -46.63,-12.37 -109.6,-3.01 -146.41,60.59" /></g></g><g
         transform="matrix(1.9005839,0,0,1.9005839,-4502.9207,-5677.3926)"
         id="g142"><g
           clip-path="url(#clipPath148)"
           id="g144"><path
             id="path162"
             style="fill:url(#linearGradient160);fill-opacity:1;fill-rule:nonzero;stroke:none"
             d="m 4945.48,6266.44 -31.41,14.43 -1105.08,509.47 c -70.11,32.21 -83.43,96.6 -72.64,145.94 10.79,49.48 49.96,102.29 127.05,102.29 h 2273.29 c 77.09,0 116.11,-52.81 127.05,-102.29 2.06,-9.68 3.33,-19.99 3.33,-30.63 0,-42.82 -19.82,-89.45 -75.98,-115.31 l -1105.07,-509.47 -31.57,-14.43 c -34.58,-16.02 -74.24,-16.02 -108.97,0" /></g></g><g
         transform="matrix(1.9005839,0,0,1.9005839,-4502.9207,-5677.3926)"
         id="g164"><g
           clip-path="url(#clipPath170)"
           id="g166"><path
             id="path184"
             style="fill:url(#linearGradient182);fill-opacity:1;fill-rule:nonzero;stroke:none"
             d="m 5159.93,4202.04 c -46.63,12.53 -96.44,52.02 -96.44,125.78 v 1719.73 c 0,50.59 29.66,96.91 75.66,118.01 l 1106.83,510.43 246.17,113.4 c 63.61,29.35 119.44,3.49 150.53,-30.45 19.51,-21.41 34.9,-52.34 34.9,-87.4 0,-20.61 -5.4,-42.83 -18.4,-65.35 L 5306.17,4262.63 c -36.79,-63.6 -99.61,-72.96 -146.24,-60.59" /></g></g></g></g></svg>
